# xmcd
#
# Track frame offsets:
#	150
#	14035
#	28137
#
# Disc length: 538 seconds
#
# Revision: 0
# Processed by: cddbd v1.5.2PL0 Copyright (c) Steve Scherf et al.
# Submitted via: audiograbber 1.82.02
#
DISCID=21021803
DTITLE=Beatlesons - Breakaway (Maxi CD)
DYEAR=1900
DGENRE=Country
TTITLE0=Breakaway
TTITLE1=Ace Of Space
TTITLE2=Duelling Guitars
EXTD=
EXTT0=
EXTT1=
EXTT2=
PLAYORDER=
